# xmcd CD database file generated by Grip 2.96
# 
# Track frame offsets:
#       150
#       22543
#       38770
#       64958
#       84660
#       98125
#       123774
#       144737
#       167484
#       184923
#       209150
#       230039
# 
# Disc length: 3692 seconds
# 
# Revision: 0
# Processed by: cddbd v1.4PL0 Copyright (c) Steve Scherf et al.
# Submitted via: Grip 2.96
# 
DISCID=a20e6a0c
DTITLE=Don Gallardo - Pale Shade of Blue
DYEAR=1900
DGENRE=
TTITLE0=Memphis Train
TTITLE1=This Old Town
TTITLE2=for The Days
TTITLE3=Pale Shade of Blue
TTITLE4=The Longest 60 Days
TTITLE5=Sweet Loneliness
TTITLE6=William Bonney's Lament
TTITLE7=Cali
TTITLE8=Why, Must I Wonder
TTITLE9=Chance Of Snow
TTITLE10=Counting Time
TTITLE11=Tired Eyes
EXTD=
EXTT0=
EXTT1=
EXTT2=
EXTT3=
EXTT4=
EXTT5=
EXTT6=
EXTT7=
EXTT8=
EXTT9=
EXTT10=
EXTT11=
PLAYORDER=
